<svg xmlns="http://www.w3.org/2000/svg" width="0" height="0"><symbol id="logo" viewBox="0 0 156 89" fill="none"><path d="M34 46.505V30.278h6.04c.926 0 1.757.132 2.492.394.75.247 1.39.603 1.917 1.067a4.59 4.59 0 0 1 1.247 1.692c.303.649.455 1.375.455 2.179v.139c0 .819-.152 1.56-.456 2.225a4.94 4.94 0 0 1-1.222 1.716c-.527.463-1.166.826-1.917 1.09-.751.246-1.582.37-2.493.37H37.14v5.355H34Zm3.068-7.858h2.756c.511 0 .958-.07 1.342-.21a2.92 2.92 0 0 0 .983-.579c.271-.247.47-.54.599-.88.143-.356.215-.75.215-1.183v-.139c0-.417-.072-.788-.215-1.112a2.166 2.166 0 0 0-.576-.858 2.424 2.424 0 0 0-.958-.557 4.295 4.295 0 0 0-1.318-.185h-2.828v5.703ZM48.745 46.505V30.278h6.423c.942 0 1.773.116 2.492.348.735.232 1.358.564 1.87.997a3.98 3.98 0 0 1 1.174 1.576c.272.603.407 1.298.407 2.086v.209c0 1.05-.263 1.962-.79 2.735-.528.758-1.255 1.322-2.181 1.693l4.122 6.583h-3.715l-3.451-5.911h-3.212v5.91h-3.14Zm3.068-8.299h2.971c1.07 0 1.87-.232 2.397-.695.527-.464.79-1.098.79-1.901v-.232c0-.788-.27-1.399-.814-1.831-.527-.448-1.31-.673-2.349-.673h-2.995v5.332ZM64.66 46.505V30.278h10.353v2.69H67.8v4.056h6.735v2.55h-6.735v4.242h7.454v2.689H64.66ZM85.636 46.76c-1.23 0-2.349-.209-3.355-.626a7.882 7.882 0 0 1-2.613-1.739 7.743 7.743 0 0 1-1.701-2.62c-.4-1.019-.6-2.132-.6-3.337v-.093c0-1.19.2-2.295.6-3.315a8.19 8.19 0 0 1 1.701-2.642 7.88 7.88 0 0 1 2.613-1.739c1.022-.417 2.133-.626 3.331-.626h.024c.72 0 1.406.085 2.061.255a7.126 7.126 0 0 1 1.822.696 7.41 7.41 0 0 1 1.557 1.112c.464.433.871.912 1.223 1.438l-2.397 1.669c-.48-.773-1.062-1.36-1.75-1.762-.67-.417-1.47-.626-2.396-.626-.783 0-1.494.139-2.133.417a4.443 4.443 0 0 0-1.63 1.136 5.093 5.093 0 0 0-1.006 1.739c-.24.664-.36 1.414-.36 2.248v.116c0 .804.12 1.546.36 2.225.24.68.583 1.268 1.03 1.762.448.48.983.858 1.606 1.136.623.263 1.326.394 2.109.394.48 0 .927-.054 1.342-.162a4.617 4.617 0 0 0 2.157-1.206c.304-.293.567-.625.791-.996l2.325 1.646a6.443 6.443 0 0 1-1.199 1.437 7.41 7.41 0 0 1-1.557 1.112 9.033 9.033 0 0 1-1.846.696c-.655.17-1.35.255-2.085.255h-.024ZM94.758 46.505V30.278h3.14v16.227h-3.14ZM107.312 46.76c-.623 0-1.239-.046-1.846-.14a10.656 10.656 0 0 1-1.749-.416c-.559-.201-1.095-.44-1.606-.72a9.213 9.213 0 0 1-1.438-1.02l1.606-2.41c.351.325.735.61 1.15.858.416.232.847.425 1.294.58.448.154.903.278 1.366.37.464.078.919.116 1.367.116.463 0 .87-.038 1.222-.116.367-.093.671-.224.911-.394.255-.17.447-.37.575-.603.144-.231.215-.494.215-.788 0-.37-.103-.68-.311-.927a2.384 2.384 0 0 0-.791-.672 5.411 5.411 0 0 0-1.174-.464c-.432-.139-.887-.278-1.366-.417a37.926 37.926 0 0 1-2.038-.626 8.98 8.98 0 0 1-1.821-.904 4.96 4.96 0 0 1-1.318-1.368c-.336-.556-.503-1.236-.503-2.04 0-.772.159-1.445.479-2.016a4.496 4.496 0 0 1 1.246-1.46 5.21 5.21 0 0 1 1.822-.882 7.56 7.56 0 0 1 2.133-.301c1.198 0 2.316.178 3.355.533 1.054.34 1.973.835 2.756 1.484l-1.654 2.387a5.642 5.642 0 0 0-2.109-1.205c-.815-.263-1.59-.394-2.324-.394a3.97 3.97 0 0 0-1.103.139 2.723 2.723 0 0 0-.839.348 1.695 1.695 0 0 0-.527.58 1.59 1.59 0 0 0-.168.741c0 .325.096.603.288.834.192.232.447.441.767.626.335.17.719.325 1.15.464.448.124.919.255 1.414.394.719.186 1.422.402 2.109.65.703.231 1.326.54 1.87.926.543.371.982.835 1.318 1.391.351.541.527 1.213.527 2.017 0 .773-.168 1.468-.503 2.086a4.456 4.456 0 0 1-1.342 1.53c-.56.402-1.223.711-1.99.928-.751.2-1.557.3-2.42.3ZM116.337 46.505V30.278h3.14v16.227h-3.14ZM122.492 38.461v-.139c0-1.19.199-2.295.599-3.315.415-1.02.983-1.9 1.701-2.642a7.879 7.879 0 0 1 2.613-1.74c1.022-.416 2.133-.625 3.331-.625h.192c1.198 0 2.301.209 3.307.626a7.879 7.879 0 0 1 2.613 1.738 7.74 7.74 0 0 1 1.725 2.62c.416 1.004.623 2.11.623 3.315v.185c0 1.19-.207 2.295-.623 3.315a8.057 8.057 0 0 1-1.725 2.62 7.878 7.878 0 0 1-2.613 1.738c-1.006.417-2.109.626-3.307.626h-.192a8.666 8.666 0 0 1-3.307-.626 8.182 8.182 0 0 1-2.613-1.762 8.18 8.18 0 0 1-1.701-2.642 8.631 8.631 0 0 1-.623-3.292Zm3.259 0c0 .835.12 1.6.36 2.295a5.45 5.45 0 0 0 1.054 1.762c.448.479.975.857 1.582 1.136a5.19 5.19 0 0 0 2.037.394h.144c.735 0 1.406-.132 2.013-.394a4.718 4.718 0 0 0 1.558-1.136 5.45 5.45 0 0 0 1.054-1.762c.256-.696.384-1.46.384-2.295v-.139c0-.835-.128-1.592-.384-2.272a5.095 5.095 0 0 0-1.03-1.785 4.497 4.497 0 0 0-1.606-1.136 4.776 4.776 0 0 0-2.013-.417h-.144c-.719 0-1.39.14-2.013.417a4.552 4.552 0 0 0-1.582 1.136 5.4 5.4 0 0 0-1.054 1.785c-.24.68-.36 1.438-.36 2.272v.14ZM142.199 46.505V30.278h3.547l6.926 11.521h.192V30.28h3.044v16.226h-3.212l-7.237-12.077h-.192v12.077h-3.068ZM69.46 61.972a3.952 3.952 0 0 1-1.452-.261 3.362 3.362 0 0 1-1.138-.743 3.534 3.534 0 0 1-.74-1.143c-.18-.45-.27-.94-.27-1.472v-.083c0-.541.09-1.032.27-1.473.18-.44.427-.82.74-1.142a3.361 3.361 0 0 1 1.138-.743c.446-.175.93-.262 1.451-.262h.043c.56 0 1.067.101 1.523.303a3.23 3.23 0 0 1 1.18.826V51.98h1.054v9.91h-.826a4.33 4.33 0 0 1-.142-.496 10.054 10.054 0 0 1-.085-.55 3.377 3.377 0 0 1-1.181.84 3.87 3.87 0 0 1-1.523.288h-.043Zm.156-1.018c.787 0 1.413-.234 1.878-.702.475-.468.712-1.101.712-1.9v-.082c0-.798-.237-1.431-.712-1.9-.465-.467-1.09-.701-1.878-.701h-.057c-.787 0-1.418.234-1.892.702-.465.468-.698 1.1-.698 1.899v.083c0 .798.233 1.431.698 1.899.474.468 1.105.702 1.892.702h.057ZM78.965 61.972c-.531 0-1.02-.087-1.465-.261a3.436 3.436 0 0 1-1.153-.73 3.45 3.45 0 0 1-.74-1.1c-.18-.432-.27-.9-.27-1.404v-.152c0-.532.09-1.023.27-1.473.18-.45.432-.835.754-1.156.332-.33.721-.587 1.167-.77a3.812 3.812 0 0 1 1.466-.276c.502 0 .958.083 1.366.248.417.156.773.385 1.067.688.304.294.536.647.697 1.06.171.404.257.853.257 1.349v.77h-5.92c.038.322.123.615.256.881.142.267.327.496.555.689.228.192.493.344.797.454.303.11.63.165.982.165.512 0 .972-.101 1.38-.303.408-.21.716-.468.925-.77l.84.536c-.352.505-.816.89-1.395 1.156a4.28 4.28 0 0 1-1.836.4Zm2.377-4.17a2.142 2.142 0 0 0-.228-.867 1.928 1.928 0 0 0-.512-.675 2.24 2.24 0 0 0-.74-.426 2.542 2.542 0 0 0-.925-.165c-.655 0-1.2.197-1.637.592-.436.385-.706.899-.81 1.541h4.852ZM84.464 54.733h.825c.048.128.09.289.128.482.038.192.067.366.086.522a3.2 3.2 0 0 1 1.153-.812 3.644 3.644 0 0 1 1.494-.302h.042c.92 0 1.604.23 2.05.688.445.459.668 1.124.668 1.996v4.583h-1.053v-4.404c0-.588-.142-1.042-.427-1.363-.275-.321-.74-.482-1.394-.482h-.071c-.36 0-.693.05-.996.152-.304.1-.565.247-.783.44a2.124 2.124 0 0 0-.498.702c-.114.266-.17.573-.17.922v4.033h-1.054v-7.157ZM95.521 61.931c-.635 0-1.147-.147-1.536-.44-.38-.294-.57-.79-.57-1.487v-4.308h-.996v-.743a6.09 6.09 0 0 1 .484-.124c.18-.037.351-.064.512-.083v-1.665l1.053-.138v1.79h2.49v.963h-2.49v4.13c0 .43.105.729.313.894.21.156.508.234.897.234h.341l.399-.028c.133-.018.26-.036.384-.055.123-.018.223-.04.299-.068v.908c-.17.073-.413.128-.726.165a7.39 7.39 0 0 1-.854.055ZM100.797 62c-.379 0-.73-.05-1.053-.151a2.716 2.716 0 0 1-.81-.44 2.152 2.152 0 0 1-.541-.689 2.07 2.07 0 0 1-.186-.88v-.028c0-1.551 1.514-2.326 4.54-2.326h.669v-.496c0-.431-.166-.762-.498-.991-.323-.239-.764-.358-1.324-.358h-.028c-.408 0-.84.069-1.295.207a3.768 3.768 0 0 0-1.167.55l-.526-.84a6.836 6.836 0 0 1 1.465-.688 4.788 4.788 0 0 1 1.58-.261h.028c.38 0 .74.05 1.082.151.341.092.64.234.896.427.256.184.46.422.612.716.152.284.228.619.228 1.004v3.813c0 .193.023.4.071.62.057.21.118.394.185.55h-1.082a2.06 2.06 0 0 1-.128-.4 10.429 10.429 0 0 1-.071-.481c-.389.33-.811.578-1.266.743a3.946 3.946 0 0 1-1.381.248Zm.015-1.019c.54 0 1.034-.1 1.48-.302.445-.211.82-.482 1.124-.812v-1.432h-.456c-1.28 0-2.215.115-2.803.344-.579.22-.868.57-.868 1.046v.028c0 .34.138.615.413.826.284.202.654.302 1.11.302ZM107.004 51.98h1.053v9.91h-1.053v-9.91ZM117.01 62a5.625 5.625 0 0 1-1.736-.275 4.233 4.233 0 0 1-1.451-.812l.626-.771c.816.578 1.689.867 2.618.867.55 0 .973-.092 1.267-.275.303-.193.455-.455.455-.785 0-.21-.057-.38-.171-.509a1.327 1.327 0 0 0-.455-.344 3 3 0 0 0-.655-.248 15.355 15.355 0 0 0-.768-.179 47.282 47.282 0 0 1-.953-.234 3.252 3.252 0 0 1-.84-.344 2.036 2.036 0 0 1-.612-.55c-.152-.23-.228-.519-.228-.868 0-.633.238-1.133.712-1.5.484-.367 1.124-.55 1.921-.55.493 0 .991.078 1.494.234.512.156.953.371 1.323.647l-.526.84a3.778 3.778 0 0 0-1.138-.524 4.154 4.154 0 0 0-1.224-.193c-.484 0-.849.088-1.096.262a.771.771 0 0 0-.37.674c0 .138.029.257.085.358.067.101.171.197.314.29a3.1 3.1 0 0 0 .583.26c.247.074.55.152.911.235.332.073.664.156.996.247a3.7 3.7 0 0 1 .896.372 1.9 1.9 0 0 1 .655.592c.171.239.256.546.256.922 0 .33-.071.633-.213.909-.133.266-.328.49-.584.674a2.924 2.924 0 0 1-.925.427c-.351.1-.74.151-1.167.151ZM123.898 61.931c-.636 0-1.148-.147-1.537-.44-.379-.294-.569-.79-.569-1.487v-4.308h-.996v-.743c.152-.046.313-.087.484-.124.18-.037.351-.064.512-.083v-1.665l1.053-.138v1.79h2.49v.963h-2.49v4.13c0 .43.104.729.313.894.209.156.507.234.896.234h.342l.398-.028a39.6 39.6 0 0 0 .385-.055 1.57 1.57 0 0 0 .298-.068v.908c-.17.073-.412.128-.725.165a7.394 7.394 0 0 1-.854.055ZM129.686 62c-.892 0-1.556-.23-1.992-.688-.436-.459-.655-1.124-.655-1.996v-4.583h1.053v4.404c0 .587.133 1.042.399 1.363.275.32.726.481 1.352.481h.057c.351 0 .673-.05.967-.15.294-.102.546-.249.754-.441.219-.193.385-.427.499-.702.123-.276.184-.583.184-.922v-4.033h1.054v7.157h-.826a3.367 3.367 0 0 1-.128-.468 7.253 7.253 0 0 1-.085-.523c-.313.349-.693.62-1.139.812-.436.193-.92.289-1.451.289h-.043ZM139.039 61.972a3.954 3.954 0 0 1-1.452-.261 3.369 3.369 0 0 1-1.138-.743 3.53 3.53 0 0 1-.74-1.143c-.18-.45-.27-.94-.27-1.472v-.083c0-.541.09-1.032.27-1.473.18-.44.427-.82.74-1.142a3.368 3.368 0 0 1 1.138-.743c.446-.175.93-.262 1.452-.262h.043c.559 0 1.067.101 1.522.303.465.193.859.468 1.181.826V51.98h1.053v9.91h-.825a4.337 4.337 0 0 1-.142-.496 10.02 10.02 0 0 1-.086-.55 3.371 3.371 0 0 1-1.181.84c-.455.192-.963.288-1.522.288h-.043Zm.156-1.018c.788 0 1.414-.234 1.879-.702.474-.468.711-1.101.711-1.9v-.082c0-.798-.237-1.431-.711-1.9-.465-.467-1.091-.701-1.879-.701h-.056c-.788 0-1.419.234-1.893.702-.465.468-.697 1.1-.697 1.899v.083c0 .798.232 1.431.697 1.899.474.468 1.105.702 1.893.702h.056ZM145.926 53.343a.688.688 0 0 1-.498-.193.645.645 0 0 1-.199-.482c0-.193.067-.353.199-.481a.664.664 0 0 1 .498-.207c.2 0 .366.069.499.207a.645.645 0 0 1 .199.481.645.645 0 0 1-.199.482.689.689 0 0 1-.499.193Zm-.526 1.39h1.053v7.157H145.4v-7.157ZM152.229 61.972a4.143 4.143 0 0 1-1.494-.261 3.746 3.746 0 0 1-1.181-.743 3.408 3.408 0 0 1-.754-1.143 3.907 3.907 0 0 1-.271-1.472v-.083c0-.532.09-1.019.271-1.459.18-.45.431-.83.754-1.142a3.444 3.444 0 0 1 1.181-.743 3.956 3.956 0 0 1 1.494-.276h.071c.541 0 1.039.092 1.494.276.456.174.845.421 1.167.743.332.312.588.693.769 1.142.18.44.27.927.27 1.459v.083c0 .532-.09 1.023-.27 1.472a3.33 3.33 0 0 1-.769 1.143c-.322.312-.711.56-1.167.743a4.143 4.143 0 0 1-1.494.261h-.071Zm.043-1.004a2.86 2.86 0 0 0 1.067-.193c.322-.128.598-.307.825-.537.228-.23.403-.504.527-.826.133-.32.199-.674.199-1.06v-.082c0-.385-.066-.739-.199-1.06a2.36 2.36 0 0 0-.527-.826 2.393 2.393 0 0 0-.825-.536 2.861 2.861 0 0 0-1.067-.193h-.015c-.389 0-.744.064-1.067.193a2.402 2.402 0 0 0-.825.536c-.228.23-.408.505-.541.826a2.94 2.94 0 0 0-.185 1.06v.083c0 .385.062.738.185 1.06.133.32.313.596.541.825a2.4 2.4 0 0 0 .825.537 2.86 2.86 0 0 0 1.067.193h.015Z" fill="#C9C9C9"/><path d="M64.585 83.361c2.562-5.493-5.475-9.497-10.824-9.324-5.071.864-4.552 3.54-5.18 4.743-2.156 4.133.823 7.175 3.437 8.077 2.996 1.393 9.704 2.644 12.567-3.496Z" stroke="#C9C9C9" stroke-width=".5"/><path d="M48.93 76.41c.072-3.688-5.247-4.837-8.233-5.498-1.494-.277-3.356-.866-5.906.175-1.511.617-5.553 6.142-3.17 8.894 4.527 3.327 9.754 4.366 12.965 3.065 1.797-.85 4.273-2.95 4.345-6.637Z" stroke="#C9C9C9" stroke-width=".5"/><path d="M21.768 75.593c1.227 2.818 4.931 3.308 7.026 2.596 2.181-.94 4.277-4.85 3.132-7.82-1.254-3.254-5.22-2.997-7.132-2.356-2.182.917-4.06 5.209-3.026 7.58Z" stroke="#C9C9C9" stroke-width=".5"/><path d="m17.035 64.44.09-.013m0 0c2.472-.316 6.84.37 5.216 5.613-1.644 5.307-6.511 4.502-8.864 2.795-1.258-1.424-2.41-3.521-.89-6.225 1.405-1.45 3.585-1.905 4.538-2.183ZM15.05 59.93c-2.115-1.75-6.12-.818-8.65.129-3.218 1.62-1.105 3.934-.099 5.17.854.801 2.058 3.12 4.395 2.124 2.922-1.244 6.018-6.047 4.354-7.423ZM9.067 42.773c2.094-.886 1.914-2.507.809-3.24l-2.033-.987-.746-.335-1.576-.504-2.597-.515c-1.213-.264-1.861.73-1.852 4.094.01 3.365 1.64 3.706 2.547 3.377.94-.38 3.285-.975 5.448-1.89Z" stroke="#C9C9C9" stroke-width=".5"/><path d="M9.067 50.375c2.094-.886 1.914-2.507.809-3.24l-2.033-.987-.746-.336-1.576-.503-2.597-.516c-1.213-.264-1.861.73-1.852 4.095.01 3.365 1.64 3.705 2.547 3.377.94-.38 3.285-.975 5.448-1.89ZM11.8 56.732c2.028-1.239 1.328-2.672-.115-3.107l-1.03-.258-1.283-.213-1.61-.204-1.432-.076-3.016.072c-1.416.013-1.826 1.031-.771 4.081 1.054 3.05 1.815 3.674 2.711 3.187.916-.54 4.451-2.202 6.546-3.482ZM11.838 34.146c-.422-2.232-3.054-3.435-4.508-4.192-1.91-.924-3.395-.058-4.446 2.05-.84 1.686-1.069 3.136.829 4.677 3.552 1.433 8.542-.333 8.125-2.535ZM16.052 29.608c1.082-1.111.561-4.108-.937-6.314l-.947-.824-2.288-1.25c-2.012-.6-2.127-.463-4.098 1.14-2.587 2.105-2.185 4.97-1.06 6.603 2.663 1.742 7.477 2.552 9.33.645Z" stroke="#C9C9C9" stroke-width=".5"/><path d="m20.31 17.366-.615-1.76c-.273-.285.168.856.161 1.215-.007.35.043.992-.21 1.338-.507.645-2.716 1.687-4.115 1.27-1.398-.416-1.3-.414-1.18-.272.06.142.27.425.822.575.786.213.925.371 1.107.515 2.103 1.297 1.156.482.916.15-.121-.118-.437-.454.011-.67 1.58-.324 2.002-.771 2.43-1.166.444-.41.758-.774.673-1.195ZM20.523 68.787l-.65-1.75c-.277-.28.185.854.185 1.213 0 .35.062.99-.185 1.34-.493.654-2.682 1.73-4.088 1.336-1.407-.394-1.309-.393-1.185-.253.061.14.277.42.832.562.79.2.932.356 1.117.496 2.128 1.265 1.165.464.919.137-.124-.117-.446-.448-.002-.671 1.573-.349 1.987-.802 2.407-1.204.436-.416.742-.785.65-1.206Z" fill="#C9C9C9"/><path d="M22.785 23.109c2.005-2.49.741-5.56-.14-6.784-.852-1.29-3.436-3.229-6.964-.657-3.53 2.571-2.757 5.123-1.93 6.077 2.176 1.492 7.029 3.854 9.034 1.364Z" stroke="#C9C9C9" stroke-width=".5"/><path d="M32.61 17.533c2.91-3.3-1.473-7.197-3.915-8.234-2.007-.543-3.733-.1-4.616.33-3.907 1.905-2.33 4.879-1.42 6.878 1.908 2.523 5.867 5.657 9.95 1.026Z" stroke="#C9C9C9" stroke-width=".5"/><path d="m29.597 74.712-.6 1.97c-.192.177-.205-.825-.067-1.444.27-1.637-.538-2.302-.976-2.43l-3.21-.177c-.17.261-.585.844-.89 1.077-.304.234-.964.886-.657.402.164-.2.39-.486.686-.776.485-.474.596-1.907.774-1.897l.388.772 3.3.181c.726-.523 2.18-1.569 1.315-.803-.692.613-.897 1.181-.913 1.389.167.155.497.515.482.715-.044.56 1.506.208 1.046.37-.369.13-.605.488-.678.651ZM24.295 14.466l.808 2.033c.22.177-.064-.781-.294-1.43-.517-1.726.204-2.563.624-2.725l3.236-.434c.49.312.8.899 1.14 1.13.34.23 1.099.885.72.389-.195-.203-.465-.494-.805-.786-.556-.475-1.146-2.185-1.06-1.892l-.224 1.004-3.327.143c-.806-.514-1.549-.758-1.405-.646.786.612 1.043 1.072 1.09 1.292-.144.174-.42.577-.375.788.127.593-1.478.308-.993.454.389.117.768.51.865.68Z" fill="#C9C9C9"/><path d="M48.36 14.692c4.582-6.729-.225-9.605-3.506-10.065-.729-.113-3.051-.189-6.509.41-4.322.75-5.53 1.886-6.06 3.985-.412 1.63 1.634 6.953 3.62 7.927 3.447 1.082 5.484.206 7.051-.183 1.748-.314 3.795-.19 5.404-2.074ZM65.107 10.704c1.537-2.658.776-5.68-.042-6.581l-.993-.938-1.23-.696c-2.389-1.303-4.981-1.071-8.353-.14-4.214 1.162-3.82 1.464-3.744 5.35.075 3.887.592 3.63 2.169 5.274 1.261 1.316 3.436.719 4.925.227 2.12-.432 5.731.162 7.268-2.496Z" stroke="#C9C9C9" stroke-width=".5"/><path d="M54.485 11.105c-.536-.978-2.018-3.143-1.881-3.256.137-.112 1.532 1.092 1.592 1.088 1.509-.105 1.926-.399 2.138-.526.387-.232.689-.448.67-1.245-.046-.26-.28-.672-.525-1.367-.246-.695-.188-.74-.129-.676l.462.513c.568.76.307.95.91 1.791.562.783 1.3.782 1.635.633.567-.314 1.68-.78 1.982-.982.268-.179.714-.594.805-.954.068-.439.299-1.384.363-1.361.222.067-.013 1.519-.158 2.236-.012.001.125.026.777.117.815.115.81-.114.839-.184.029-.07.15-.387.235-.61 0 0 .181-.306.223-.275.043.031.06.572.063 1.077.001.298-.013.358-.019.545-.006.187-.069.435-.283.43-.214-.004-.107-.465-.32-.541-.159-.046-.787-.13-1.451-.084-1.023.037-1.827.573-2.432.889-.484.253-.305.66-.155.832.251.36.85 1.084.927 1.237.204.406.156.88.118.882-.038.002-.093-.13-.14-.196-.047-.065-.201-.363-.21-.43-.01-.068-1.025-1.401-1.574-1.808-.55-.407-.97-.368-1.262-.358-.164.005-1.86.644-2.086.66-1.188.22-1.28.202-1.321.366.065.862.743 1.449.207 1.557ZM52.118 78.022c-.476.993-1.826 3.196-1.682 3.305.144.11 1.464-1.128 1.525-1.125 1.513.072 1.948.357 2.167.48.401.223.715.433.745 1.232-.031.261-.24.68-.442 1.382-.203.702-.143.746-.088.68l.43-.524c.522-.775.25-.96.801-1.815.514-.797 1.251-.813 1.595-.67.586.3 1.726.744 2.04.938.278.174.748.58.861.94.095.437.382 1.38.445 1.355.218-.072-.104-1.522-.293-2.238-.012 0 .124-.028.77-.135.807-.132.816.097.849.167.033.07.216.573.314.795 0 0 .126.222.166.19.04-.033.056-.683.028-1.19-.016-.298-.034-.358-.051-.546-.018-.187-.336-.901-.435-.897-.099.004.047.941-.161 1.023-.156.05-.779.147-1.445.116-1.024-.014-1.859-.533-2.482-.836-.499-.243-.345-.655-.205-.831.229-.366.783-1.105.85-1.26.18-.411.23-.879.066-.887-.115-.005-.107.102-.16.184-.043.067-.26.434-.346.495-.066.047-.768 1.249-1.292 1.669-.524.42-.925.524-1.217.521-.164-.001-1.896-.604-2.123-.614-1.201-.194-1.29-.175-1.342-.338.013-.865.655-1.468.112-1.566ZM47.804 11.195c-.683-1.185-1.99-3.958-2.207-3.995-.215-.037.118 1.788.072 1.814-1.155.653-1.91.686-2.192.672-.518-.025-.808-.179-1.653-.937-.248-.267-.53-.77-1.11-1.546-.578-.775-.666-.788-.638-.698l.232.711c.427.997.812 1.046 1.3 2.136.455 1.015-.055 1.38-.447 1.408-.73-.012-2 .104-2.425.065-.378-.034-1.133-.203-1.584-.496-.52-.378-1.696-1.15-1.715-1.097-.082.173 1.643 1.42 2.516 2.022.01-.005-.059.087-.41.497-.44.513-.683.296-.778.244-.096-.052-.52-.288-.818-.455 0 0-.456-.198-.451-.148.004.05.574.567 1.116 1.043.32.28.394.33.6.503.205.173.516.375.659.264.143-.111-.428-.491-.363-.67.06-.121.404-.513.912-.8.747-.475 1.878-.372 2.636-.376.606-.004.921.468 1.003.704.213.463.58 1.441.691 1.623.296.483.84.904.868.888.03-.016-.076-.17-.114-.254a3.637 3.637 0 0 0-.318-.509c-.067-.068-.8-1.826-.859-2.482-.059-.655.274-.828.486-.964.118-.077 1.977-.321 2.15-.42 1.058-.385 1.102-.446 1.307-.313.883.842 1.046 1.731 1.534 1.566ZM36.945 73.601c-.701 1.087-2.551 3.47-2.433 3.61.118.14 1.716-1.141 1.776-1.132 1.49.238 1.858.609 2.047.771.348.298.613.57.46 1.487-.092.296-.395.754-.758 1.536-.363.783-.313.84-.243.77l.549-.556c.696-.833.468-1.073 1.213-1.995.694-.859 1.432-.8 1.742-.603.513.405 1.547 1.029 1.814 1.284.238.227.612.74.643 1.163-.007.511.063 1.618.131 1.597.234-.06.246-1.752.223-2.59-.013-.003.13-.02.796-.076.834-.069.79.194.807.278.017.083.085.457.132.72 0 0 .129.368.176.335.048-.033.157-.655.245-1.237.053-.343.049-.414.074-.63.026-.216.006-.507-.21-.518-.214-.011-.185.529-.412.6-.166.041-.809.089-1.464-.016-1.016-.121-1.729-.8-2.28-1.211-.44-.33-.192-.785-.013-.972.312-.395 1.033-1.184 1.136-1.354.273-.453.305-1.002.268-1.008-.037-.006-.116.143-.174.215-.057.071-.262.402-.283.48-.02.077-1.262 1.536-1.88 1.962-.618.427-1.032.35-1.322.316-.163-.019-1.75-.886-1.973-.922-1.15-.345-1.244-.332-1.258-.523.211-.99.989-1.614.471-1.78ZM9.051 25.52c.394-.79 1.227-1.815 2.113-2.441.47-.266-1.398 1.777-1.664 2.369-.51 1.133.023 2.69-.249 2.502-.24-.166-.63-1.565-.2-2.43ZM8.497 64.53c-.533-.715-1.051-1.891-1.169-2.9 0-.503.926 2.003 1.339 2.516.792.983 2.533 1.38 2.213 1.493-.283.1-1.8-.327-2.383-1.109ZM4.415 33.623c.09-.621 1.104-2.093 1.594-2.357.327-.176-1.209 1.99-1.213 2.457-.004.468.467 2.191.322 2.398-.154.219-.786-1.928-.703-2.498ZM3.105 40.906c-.03-.626.685-2.234 1.116-2.57.29-.226-.808 2.148-.722 2.608.086.461.882 2.083.778 2.31-.109.239-1.144-1.774-1.172-2.348ZM3.283 48.89c-.031-.626.685-2.235 1.116-2.571.29-.225-.808 2.148-.722 2.609.086.46.882 2.083.778 2.309-.109.24-1.144-1.774-1.172-2.348ZM3.913 56.62c-.266-.572-.204-2.297.074-2.748.187-.302.056 2.257.312 2.66.256.4 1.622 1.657 1.61 1.9-.011.258-1.751-1.286-1.996-1.811Z" fill="#C9C9C9"/></symbol><symbol id="arrow" viewBox="0 0 25 24" fill="none"><path d="M5.276 17.99 19.265 6.664m0 0-9.022-.415m9.022.415-1.47 8.91" stroke="#202020" stroke-width="1.5" stroke-linecap="round" stroke-linejoin="round"/></symbol><symbol id="telegram" viewBox="0 0 45 45" fill="none"><path fill-rule="evenodd" clip-rule="evenodd" d="M34.273 14.44 29.941 30.95c-.393 1.495-2.163 2.096-3.418 1.334-1.027-.624-3.164-1.856-7.357-4.07-.834-.44-1.132-1.586-.417-2.362l2.088-2.265-3.424 1.842c-1.105.595-2.471.941-3.882.652-1.914-.393-3.711-1.096-4.254-1.318-1.366-.557-1.18-2.333.01-2.811l22.988-9.226c1.13-.453 2.303.551 1.998 1.712ZM9.846 23.294c-.06.024-.062.106-.002.13.516.211 2.212.873 3.99 1.238.982.201 1.99-.03 2.87-.504l9.957-5.357c.219-.118.438.155.27.337l-7.087 7.687a.073.073 0 0 0 .021.113c4.207 2.22 6.372 3.468 7.435 4.113.45.274 1.079.04 1.21-.462l4.334-16.512c.001-.006-.005-.011-.01-.01L9.846 23.296Z" fill="#E9E9E9"/></symbol><symbol id="viber" viewBox="0 0 45 45" fill="none"><path fill-rule="evenodd" clip-rule="evenodd" d="M18.392 16.099c-.194-.447-.591-.801-1.069-.77-1.495.098-2.42 1.502-2.836 2.984-.48 1.704.074 3.509 1.055 4.971a14.792 14.792 0 0 0 3.398 3.566c1.812 1.358 4.198 2.31 6.127 1.133.992-.606 1.852-1.511 2.074-2.499.111-.495-.241-.935-.694-1.146l-2.255-1.048c-.302-.14-.696-.071-.976.11-.486.316-1.129.693-1.646.437-1.267-.63-2.107-1.44-2.714-2.768-.242-.53.102-1.192.404-1.688.186-.305.247-.719.104-1.047l-.972-2.235Zm-1.143.534.918 2.112a5.12 5.12 0 0 0-.509 1.07c-.141.446-.252 1.116.059 1.797.74 1.62 1.8 2.635 3.303 3.38.687.341 1.362.21 1.797.055a5.008 5.008 0 0 0 1.005-.517l2.002.93c-.206.453-.688.984-1.402 1.42-.61.373-1.333.442-2.169.238-.852-.21-1.75-.69-2.57-1.305a13.52 13.52 0 0 1-3.104-3.255c-.856-1.277-1.223-2.684-.884-3.89.35-1.246.95-1.905 1.553-2.035Z" fill="#E9E9E9"/><path d="M24.931 20.375c.108.418-.229.793-.651.793-.327 0-.605-.23-.734-.538a3.173 3.173 0 0 0-1.655-1.692c-.3-.13-.527-.415-.527-.75 0-.431.368-.775.776-.665 1.382.372 2.428 1.442 2.791 2.852ZM27.26 21.309c.448 0 .796-.405.689-.85-.679-2.814-2.861-5.044-5.615-5.737-.435-.11-.832.245-.832.703 0 .364.257.672.6.77 2.123.61 3.808 2.332 4.404 4.5.097.352.398.614.755.614Z" fill="#E9E9E9"/><path d="M30.728 20.7a.7.7 0 0 1-.708.718c-.422 0-.755-.363-.776-.795-.19-3.736-3.201-6.813-6.858-7.007-.422-.022-.777-.362-.777-.794 0-.402.31-.736.703-.722 4.52.16 8.26 3.98 8.416 8.6Z" fill="#E9E9E9"/><path fill-rule="evenodd" clip-rule="evenodd" d="M28.327 31.852c3.295-.618 5.765-3.375 6.167-6.774a37.52 37.52 0 0 0 .256-4.4 37.52 37.52 0 0 0-.256-4.399c-.402-3.4-2.872-6.156-6.167-6.775a33.024 33.024 0 0 0-6.077-.553c-2.119 0-4.16.194-6.077.553-3.295.619-5.765 3.375-6.167 6.775a37.523 37.523 0 0 0-.256 4.4c0 1.506.088 2.978.256 4.399.344 2.904 2.196 5.34 4.784 6.373.303.12.516.41.516.741v4.001c0 .71.87 1.029 1.311.48l3.24-4.036c.15-.188.38-.29.617-.277.585.03 1.178.046 1.776.046 2.119 0 4.16-.194 6.077-.554Zm-.268-1.487c2.64-.495 4.64-2.707 4.966-5.469.16-1.36.246-2.77.246-4.218 0-1.447-.085-2.858-.246-4.218-.326-2.762-2.325-4.973-4.966-5.469a31.57 31.57 0 0 0-5.809-.528 31.57 31.57 0 0 0-5.81.528c-2.64.496-4.639 2.707-4.965 5.47-.16 1.36-.246 2.77-.246 4.217 0 1.447.085 2.858.246 4.218.279 2.36 1.78 4.319 3.854 5.147a2.317 2.317 0 0 1 1.456 2.15v1.887l1.928-2.402a2.208 2.208 0 0 1 1.836-.828c.56.03 1.128.044 1.701.044a31.57 31.57 0 0 0 5.81-.529Z" fill="#E9E9E9"/></symbol><symbol id="instagram" viewBox="0 0 45 45" fill="none"><path fill-rule="evenodd" clip-rule="evenodd" d="M22.76 28.01a5.25 5.25 0 1 0 0-10.5 5.25 5.25 0 0 0 0 10.5Zm0-1.5a3.75 3.75 0 1 0 0-7.5 3.75 3.75 0 0 0 0 7.5Z" fill="#E9E9E9"/><path d="M29.51 17.51a.75.75 0 1 0 0-1.5.75.75 0 0 0 0 1.5Z" fill="#E9E9E9"/><path fill-rule="evenodd" clip-rule="evenodd" d="M17.51 10.76a6.75 6.75 0 0 0-6.75 6.75v10.5a6.75 6.75 0 0 0 6.75 6.75h10.5a6.75 6.75 0 0 0 6.75-6.75v-10.5a6.75 6.75 0 0 0-6.75-6.75h-10.5Zm10.5 1.5h-10.5a5.25 5.25 0 0 0-5.25 5.25v10.5c0 2.9 2.351 5.25 5.25 5.25h10.5c2.9 0 5.25-2.35 5.25-5.25v-10.5c0-2.899-2.35-5.25-5.25-5.25Z" fill="#E9E9E9"/></symbol><symbol id="icon-play" viewBox="0 0 32 32"><path d="M16 0C7.163 0 0 7.163 0 16s7.163 16 16 16 16-7.163 16-16S24.837 0 16 0zm0 29C8.82 29 3 23.18 3 16S8.82 3 16 3s13 5.82 13 13-5.82 13-13 13zM12 9l12 7-12 7z"/></symbol><symbol id="icon-pause" viewBox="0 0 32 32"><path d="M16 0C7.163 0 0 7.163 0 16s7.163 16 16 16 16-7.163 16-16S24.837 0 16 0zm0 29C8.82 29 3 23.18 3 16S8.82 3 16 3s13 5.82 13 13-5.82 13-13 13zm-6-19h4v12h-4zm8 0h4v12h-4z"/></symbol></svg>