<?xml version="1.0" encoding="UTF-8"?>
<svg xmlns="http://www.w3.org/2000/svg" xmlns:xlink="http://www.w3.org/1999/xlink" width="0" height="0">
<symbol id="logo" width="156" height="89" viewBox="0 0 156 89" fill="none">
<path d="M33.9999 46.5049V30.2782H40.0394C40.9661 30.2782 41.797 30.4095 42.5319 30.6722C43.2829 30.9195 43.922 31.275 44.4492 31.7386C44.9925 32.2022 45.4079 32.7663 45.6955 33.4308C45.999 34.0799 46.1508 34.8062 46.1508 35.6098V35.7489C46.1508 36.5679 45.999 37.3097 45.6955 37.9743C45.4079 38.6388 45.0004 39.2106 44.4732 39.6896C43.9459 40.1533 43.3068 40.5164 42.5559 40.7792C41.8049 41.0264 40.9741 41.1501 40.0634 41.1501H37.1395V46.5049H33.9999ZM37.0676 38.6465H39.8237C40.335 38.6465 40.7824 38.577 41.1658 38.4379C41.5493 38.2988 41.8768 38.1056 42.1485 37.8584C42.4201 37.6111 42.6198 37.3175 42.7476 36.9775C42.8914 36.622 42.9633 36.228 42.9633 35.7952V35.6562C42.9633 35.2389 42.8914 34.868 42.7476 34.5435C42.6198 34.2035 42.4281 33.9176 42.1724 33.6858C41.9168 33.4385 41.5972 33.2531 41.2138 33.1294C40.8303 33.0058 40.3909 32.944 39.8956 32.944H37.0676V38.6465Z" fill="#C9C9C9"/>
<path d="M48.7448 46.5049V30.2782H55.1677C56.1104 30.2782 56.9413 30.3941 57.6602 30.6259C58.3952 30.8577 59.0183 31.19 59.5296 31.6227C60.0569 32.0554 60.4483 32.5808 60.7039 33.199C60.9756 33.8017 61.1114 34.4971 61.1114 35.2853V35.4939C61.1114 36.5448 60.8477 37.4565 60.3205 38.2292C59.7932 38.9865 59.0663 39.5506 58.1396 39.9215L62.2618 46.5049H58.547L55.0958 40.5937H51.8844V46.5049H48.7448ZM51.8125 38.2061H54.7843C55.8548 38.2061 56.6537 37.9743 57.1809 37.5106C57.7082 37.047 57.9718 36.4134 57.9718 35.6098V35.378C57.9718 34.5898 57.7002 33.9794 57.1569 33.5467C56.6297 33.0985 55.8468 32.8744 54.8083 32.8744H51.8125V38.2061Z" fill="#C9C9C9"/>
<path d="M64.6599 46.5049V30.2782H75.0133V32.9672H67.7995V37.0238H74.534V39.5737H67.7995V43.8159H75.253V46.5049H64.6599Z" fill="#C9C9C9"/>
<path d="M85.6361 46.7598C84.4059 46.7598 83.2875 46.5512 82.2809 46.134C81.2743 45.7167 80.4035 45.1372 79.6685 44.3954C78.9336 43.6536 78.3664 42.7804 77.9669 41.7759C77.5675 40.756 77.3678 39.6433 77.3678 38.4379V38.3452C77.3678 37.1552 77.5675 36.0502 77.9669 35.0303C78.3824 34.0103 78.9496 33.1294 79.6685 32.3876C80.4035 31.6458 81.2743 31.0663 82.2809 30.6491C83.3034 30.2318 84.4139 30.0232 85.6122 30.0232H85.6361C86.3551 30.0232 87.0422 30.1082 87.6972 30.2782C88.3523 30.4327 88.9595 30.6645 89.5187 30.9736C90.0939 31.2827 90.6131 31.6536 91.0765 32.0863C91.5398 32.519 91.9473 32.9981 92.2988 33.5235L89.9021 35.1925C89.4228 34.4198 88.8396 33.8326 88.1526 33.4308C87.4815 33.0135 86.6827 32.8049 85.756 32.8049C84.9731 32.8049 84.2621 32.944 83.623 33.2222C82.9839 33.4849 82.4407 33.8635 81.9933 34.358C81.5619 34.8371 81.2264 35.4166 80.9867 36.0966C80.747 36.7611 80.6272 37.5106 80.6272 38.3452V38.4611C80.6272 39.2647 80.747 40.0065 80.9867 40.6864C81.2264 41.3664 81.5699 41.9537 82.0172 42.4482C82.4646 42.9273 82.9999 43.3059 83.623 43.5841C84.2461 43.8468 84.9491 43.9781 85.732 43.9781C86.2113 43.9781 86.6587 43.924 87.0741 43.8159C87.5055 43.7077 87.897 43.5531 88.2485 43.3522C88.6 43.1513 88.9275 42.9041 89.2311 42.6105C89.5347 42.3168 89.7983 41.9846 90.022 41.6137L92.3467 43.2595C92.0271 43.785 91.6277 44.264 91.1484 44.6967C90.685 45.1294 90.1658 45.5003 89.5906 45.8094C89.0154 46.1031 88.4003 46.3349 87.7452 46.5049C87.0901 46.6749 86.3951 46.7598 85.6601 46.7598H85.6361Z" fill="#C9C9C9"/>
<path d="M94.7581 46.5049V30.2782H97.8977V46.5049H94.7581Z" fill="#C9C9C9"/>
<path d="M107.312 46.7598C106.689 46.7598 106.073 46.7135 105.466 46.6208C104.859 46.528 104.276 46.389 103.717 46.2035C103.158 46.0026 102.622 45.7631 102.111 45.4849C101.6 45.1913 101.12 44.8513 100.673 44.4649L102.279 42.0541C102.63 42.3786 103.014 42.6645 103.429 42.9118C103.845 43.1436 104.276 43.3368 104.723 43.4913C105.171 43.6459 105.626 43.7695 106.089 43.8622C106.553 43.9395 107.008 43.9781 107.456 43.9781C107.919 43.9781 108.326 43.9395 108.678 43.8622C109.045 43.7695 109.349 43.6381 109.589 43.4681C109.844 43.2982 110.036 43.0973 110.164 42.8654C110.308 42.6336 110.379 42.3709 110.379 42.0773C110.379 41.7064 110.276 41.3973 110.068 41.1501C109.876 40.8873 109.613 40.6632 109.277 40.4778C108.941 40.2924 108.55 40.1378 108.103 40.0142C107.671 39.8751 107.216 39.736 106.737 39.5969C106.065 39.4115 105.386 39.2028 104.699 38.971C104.028 38.7238 103.421 38.4224 102.878 38.067C102.351 37.6961 101.911 37.2402 101.56 36.6993C101.224 36.143 101.057 35.463 101.057 34.6594C101.057 33.8867 101.216 33.2144 101.536 32.6426C101.855 32.0554 102.271 31.5686 102.782 31.1822C103.309 30.7804 103.917 30.4868 104.604 30.3014C105.291 30.1005 106.002 30 106.737 30C107.935 30 109.053 30.1777 110.092 30.5332C111.146 30.8731 112.065 31.3677 112.848 32.0167L111.194 34.4044C110.603 33.8635 109.9 33.4617 109.085 33.199C108.27 32.9363 107.495 32.8049 106.761 32.8049C106.345 32.8049 105.978 32.8513 105.658 32.944C105.339 33.0213 105.059 33.1372 104.819 33.2917C104.596 33.4462 104.42 33.6394 104.292 33.8712C104.18 34.0876 104.124 34.3348 104.124 34.613C104.124 34.9375 104.22 35.2157 104.412 35.4475C104.604 35.6793 104.859 35.888 105.179 36.0734C105.514 36.2434 105.898 36.3979 106.329 36.537C106.777 36.6607 107.248 36.792 107.743 36.9311C108.462 37.1166 109.165 37.3329 109.852 37.5802C110.555 37.812 111.178 38.1211 111.722 38.5074C112.265 38.8783 112.704 39.3419 113.04 39.8983C113.391 40.4392 113.567 41.1114 113.567 41.915C113.567 42.6877 113.399 43.3832 113.064 44.0013C112.744 44.604 112.297 45.114 111.722 45.5313C111.162 45.9331 110.499 46.2421 109.732 46.4585C108.981 46.6594 108.175 46.7598 107.312 46.7598Z" fill="#C9C9C9"/>
<path d="M116.337 46.5049V30.2782H119.477V46.5049H116.337Z" fill="#C9C9C9"/>
<path d="M122.492 38.4611V38.322C122.492 37.132 122.691 36.0271 123.091 35.0071C123.506 33.9871 124.074 33.1063 124.792 32.3645C125.527 31.6227 126.398 31.0431 127.405 30.6259C128.427 30.2086 129.538 30 130.736 30H130.928C132.126 30 133.229 30.2086 134.235 30.6259C135.242 31.0431 136.113 31.6227 136.848 32.3645C137.582 33.0908 138.158 33.9639 138.573 34.9839C138.989 35.9884 139.196 37.0934 139.196 38.2988V38.4842C139.196 39.6742 138.989 40.7792 138.573 41.7991C138.158 42.8036 137.582 43.6768 136.848 44.4186C136.113 45.1604 135.242 45.7399 134.235 46.1571C133.229 46.5744 132.126 46.783 130.928 46.783H130.736C129.554 46.783 128.451 46.5744 127.429 46.1571C126.422 45.7244 125.551 45.1372 124.816 44.3954C124.097 43.6536 123.53 42.7727 123.115 41.7528C122.699 40.7328 122.492 39.6356 122.492 38.4611ZM125.751 38.4611C125.751 39.2956 125.871 40.0605 126.111 40.756C126.366 41.4359 126.718 42.0232 127.165 42.5177C127.613 42.9968 128.14 43.3754 128.747 43.6536C129.37 43.9163 130.049 44.0477 130.784 44.0477H130.928C131.663 44.0477 132.334 43.9163 132.941 43.6536C133.548 43.3754 134.067 42.9968 134.499 42.5177C134.946 42.0232 135.298 41.4359 135.553 40.756C135.809 40.0605 135.937 39.2956 135.937 38.4611V38.322C135.937 37.4875 135.809 36.7302 135.553 36.0502C135.314 35.3548 134.97 34.7598 134.523 34.2653C134.075 33.7708 133.54 33.3921 132.917 33.1294C132.31 32.8513 131.639 32.7122 130.904 32.7122H130.76C130.041 32.7122 129.37 32.8513 128.747 33.1294C128.14 33.3921 127.613 33.7708 127.165 34.2653C126.718 34.7598 126.366 35.3548 126.111 36.0502C125.871 36.7302 125.751 37.4875 125.751 38.322V38.4611Z" fill="#C9C9C9"/>
<path d="M142.199 46.5049V30.2782H145.746L152.672 41.7991H152.864V30.2782H155.908V46.5049H152.696L145.459 34.4276H145.267V46.5049H142.199Z" fill="#C9C9C9"/>
<path d="M69.4594 61.9725C68.9377 61.9725 68.4539 61.8853 68.008 61.711C67.5716 61.5366 67.1921 61.2889 66.8696 60.9677C66.5565 60.6466 66.3099 60.2658 66.1296 59.8253C65.9494 59.3757 65.8593 58.8848 65.8593 58.3526V58.27C65.8593 57.7287 65.9494 57.2378 66.1296 56.7973C66.3099 56.3569 66.5565 55.9761 66.8696 55.6549C67.1921 55.3338 67.5716 55.086 68.008 54.9117C68.4539 54.7374 68.9377 54.6502 69.4594 54.6502H69.5021C70.0618 54.6502 70.5694 54.7511 71.0247 54.953C71.4896 55.1457 71.8833 55.4209 72.2058 55.7788V51.98H73.2588V61.8899H72.4335C72.3861 61.7614 72.3386 61.5963 72.2912 61.3944C72.2533 61.1834 72.2248 60.9998 72.2058 60.8439C71.8833 61.2017 71.4896 61.4816 71.0247 61.6834C70.5694 61.8761 70.0618 61.9725 69.5021 61.9725H69.4594ZM69.616 60.954C70.4034 60.954 71.0295 60.72 71.4943 60.252C71.9687 59.784 72.2058 59.1509 72.2058 58.3526V58.27C72.2058 57.4717 71.9687 56.8386 71.4943 56.3706C71.0295 55.9027 70.4034 55.6687 69.616 55.6687H69.5591C68.7717 55.6687 68.1408 55.9027 67.6665 56.3706C67.2016 56.8386 66.9692 57.4717 66.9692 58.27V58.3526C66.9692 59.1509 67.2016 59.784 67.6665 60.252C68.1408 60.72 68.7717 60.954 69.5591 60.954H69.616Z" fill="#C9C9C9"/>
<path d="M78.9653 61.9725C78.434 61.9725 77.9455 61.8853 77.4996 61.711C77.0537 61.5366 76.6695 61.2935 76.347 60.9815C76.0339 60.6695 75.7873 60.3025 75.607 59.8804C75.4268 59.4491 75.3366 58.9812 75.3366 58.4765V58.3251C75.3366 57.7929 75.4268 57.302 75.607 56.8524C75.7873 56.4028 76.0386 56.0174 76.3612 55.6962C76.6932 55.3659 77.0822 55.109 77.5281 54.9255C77.9739 54.7419 78.4625 54.6502 78.9937 54.6502C79.4965 54.6502 79.9519 54.7328 80.3598 54.8979C80.7772 55.0539 81.133 55.2833 81.4271 55.5861C81.7306 55.8797 81.9631 56.233 82.1243 56.6459C82.2951 57.0497 82.3805 57.4993 82.3805 57.9948V58.7655H76.4608C76.4988 59.0867 76.5841 59.3803 76.7169 59.6464C76.8592 59.9125 77.0442 60.1419 77.2719 60.3346C77.4996 60.5273 77.7652 60.6787 78.0688 60.7888C78.3724 60.8989 78.6996 60.954 79.0507 60.954C79.5629 60.954 80.023 60.853 80.431 60.6512C80.8389 60.4401 81.1472 60.1832 81.3559 59.8804L82.1955 60.4172C81.8445 60.9218 81.3796 61.3072 80.8009 61.5733C80.2317 61.8394 79.6199 61.9725 78.9653 61.9725ZM81.3417 57.8021C81.3227 57.4809 81.2468 57.1919 81.114 56.935C80.9907 56.6689 80.8199 56.444 80.6017 56.2605C80.393 56.077 80.1464 55.9348 79.8618 55.8339C79.5772 55.7238 79.2688 55.6687 78.9368 55.6687C78.2822 55.6687 77.7368 55.866 77.3004 56.2605C76.864 56.6459 76.5936 57.1598 76.4893 57.8021H81.3417Z" fill="#C9C9C9"/>
<path d="M84.464 54.7328H85.2894C85.3368 54.8612 85.3795 55.0218 85.4174 55.2145C85.4554 55.4072 85.4839 55.5815 85.5028 55.7375C85.8159 55.3888 86.2001 55.1181 86.6555 54.9255C87.1108 54.7236 87.6089 54.6227 88.1496 54.6227H88.1923C89.1125 54.6227 89.7955 54.8521 90.2414 55.3108C90.6873 55.7696 90.9102 56.4349 90.9102 57.3066V61.8899H89.8572V57.4855C89.8572 56.8983 89.7149 56.4441 89.4303 56.1229C89.1552 55.8017 88.6903 55.6412 88.0358 55.6412H87.9646C87.6041 55.6412 87.2721 55.6916 86.9685 55.7926C86.6649 55.8935 86.4041 56.0403 86.1859 56.233C85.9772 56.4257 85.8111 56.6597 85.6878 56.935C85.574 57.2011 85.5171 57.5084 85.5171 57.8571V61.8899H84.464V54.7328Z" fill="#C9C9C9"/>
<path d="M95.5214 61.9312C94.8858 61.9312 94.3735 61.7844 93.9846 61.4907C93.6051 61.1971 93.4154 60.7016 93.4154 60.0043V55.6962H92.4193V54.953C92.571 54.9071 92.7323 54.8658 92.9031 54.8291C93.0833 54.7924 93.2541 54.7649 93.4154 54.7465V53.0811L94.4684 52.9435V54.7328H96.9586V55.6962H94.4684V59.8253C94.4684 60.2566 94.5727 60.5548 94.7814 60.72C94.9901 60.876 95.289 60.954 95.6779 60.954C95.7728 60.954 95.8866 60.954 96.0194 60.954C96.1522 60.9448 96.2851 60.9356 96.4179 60.9264C96.5507 60.9081 96.6788 60.8897 96.8021 60.8714C96.9254 60.853 97.025 60.8301 97.1009 60.8026V61.711C96.9301 61.7844 96.6882 61.8394 96.3752 61.8761C96.0621 61.9128 95.7775 61.9312 95.5214 61.9312Z" fill="#C9C9C9"/>
<path d="M100.797 62C100.418 62 100.067 61.9495 99.7443 61.8486C99.4313 61.7385 99.1609 61.5917 98.9332 61.4082C98.7056 61.2155 98.5253 60.9861 98.3925 60.72C98.2692 60.4539 98.2075 60.1603 98.2075 59.8391V59.8116C98.2075 58.2609 99.7206 57.4855 102.747 57.4855H103.416V56.99C103.416 56.5587 103.25 56.2284 102.918 55.999C102.595 55.7605 102.154 55.6412 101.594 55.6412H101.566C101.158 55.6412 100.726 55.71 100.271 55.8476C99.825 55.9761 99.436 56.1596 99.104 56.3982L98.5775 55.5586C99.0518 55.265 99.5404 55.0356 100.043 54.8704C100.546 54.6961 101.072 54.6089 101.623 54.6089H101.651C102.031 54.6089 102.391 54.6594 102.733 54.7603C103.074 54.8521 103.373 54.9943 103.629 55.187C103.885 55.3705 104.089 55.6091 104.241 55.9027C104.393 56.1871 104.469 56.522 104.469 56.9074V60.72C104.469 60.9127 104.492 61.1191 104.54 61.3393C104.597 61.5504 104.658 61.7339 104.725 61.8899H103.643C103.596 61.789 103.553 61.6559 103.515 61.4907C103.487 61.3256 103.463 61.165 103.444 61.009C103.055 61.3393 102.633 61.5871 102.178 61.7523C101.732 61.9174 101.272 62 100.797 62ZM100.812 60.9815C101.352 60.9815 101.846 60.8806 102.292 60.6787C102.737 60.4676 103.112 60.197 103.416 59.8666V58.4352H102.96C101.68 58.4352 100.745 58.5499 100.157 58.7793C99.5783 58.9995 99.289 59.3482 99.289 59.8253V59.8529C99.289 60.1924 99.4266 60.4676 99.7017 60.6787C99.9863 60.8806 100.356 60.9815 100.812 60.9815Z" fill="#C9C9C9"/>
<path d="M107.004 51.98H108.057V61.8899H107.004V51.98Z" fill="#C9C9C9"/>
<path d="M117.01 62C116.422 62 115.843 61.9082 115.274 61.7247C114.705 61.532 114.221 61.2614 113.823 60.9127L114.449 60.1419C115.265 60.72 116.138 61.009 117.067 61.009C117.617 61.009 118.04 60.9173 118.334 60.7337C118.637 60.541 118.789 60.2795 118.789 59.9492C118.789 59.7382 118.732 59.5684 118.618 59.44C118.504 59.3023 118.353 59.1876 118.163 59.0959C117.973 58.9949 117.755 58.9123 117.508 58.8481C117.262 58.7839 117.006 58.7242 116.74 58.6692C116.427 58.5958 116.109 58.5178 115.787 58.4352C115.473 58.3526 115.194 58.2379 114.947 58.0911C114.7 57.9443 114.496 57.7608 114.335 57.5406C114.183 57.3112 114.107 57.0221 114.107 56.6734C114.107 56.0403 114.345 55.5402 114.819 55.1732C115.303 54.8062 115.943 54.6227 116.74 54.6227C117.233 54.6227 117.731 54.7007 118.234 54.8566C118.746 55.0126 119.187 55.2283 119.557 55.5035L119.031 56.3431C118.699 56.1137 118.319 55.9394 117.893 55.8201C117.475 55.6916 117.067 55.6274 116.669 55.6274C116.185 55.6274 115.82 55.7146 115.573 55.8889C115.326 56.0541 115.203 56.2789 115.203 56.5633C115.203 56.701 115.232 56.8203 115.288 56.9212C115.355 57.0221 115.459 57.1185 115.602 57.2102C115.753 57.302 115.948 57.3892 116.185 57.4717C116.432 57.5452 116.735 57.6231 117.096 57.7057C117.428 57.7791 117.76 57.8617 118.092 57.9535C118.424 58.0452 118.723 58.1691 118.988 58.3251C119.254 58.4719 119.472 58.6692 119.643 58.9169C119.814 59.1555 119.899 59.4629 119.899 59.8391C119.899 60.1694 119.828 60.4722 119.686 60.7475C119.553 61.0136 119.358 61.2384 119.102 61.4219C118.846 61.6054 118.538 61.7477 118.177 61.8486C117.826 61.9495 117.437 62 117.01 62Z" fill="#C9C9C9"/>
<path d="M123.898 61.9312C123.262 61.9312 122.75 61.7844 122.361 61.4907C121.982 61.1971 121.792 60.7016 121.792 60.0043V55.6962H120.796V54.953C120.948 54.9071 121.109 54.8658 121.28 54.8291C121.46 54.7924 121.631 54.7649 121.792 54.7465V53.0811L122.845 52.9435V54.7328H125.335V55.6962H122.845V59.8253C122.845 60.2566 122.949 60.5548 123.158 60.72C123.367 60.876 123.665 60.954 124.054 60.954C124.149 60.954 124.263 60.954 124.396 60.954C124.529 60.9448 124.662 60.9356 124.794 60.9264C124.927 60.9081 125.055 60.8897 125.179 60.8714C125.302 60.853 125.402 60.8301 125.477 60.8026V61.711C125.307 61.7844 125.065 61.8394 124.752 61.8761C124.439 61.9128 124.154 61.9312 123.898 61.9312Z" fill="#C9C9C9"/>
<path d="M129.686 62C128.794 62 128.13 61.7706 127.694 61.3118C127.258 60.853 127.039 60.1878 127.039 59.3161V54.7328H128.092V59.1372C128.092 59.7244 128.225 60.1786 128.491 60.4998C128.766 60.8209 129.217 60.9815 129.843 60.9815H129.9C130.251 60.9815 130.573 60.931 130.867 60.8301C131.161 60.7292 131.413 60.5823 131.621 60.3896C131.84 60.197 132.006 59.963 132.12 59.6877C132.243 59.4124 132.304 59.105 132.304 58.7655V54.7328H133.358V61.8899H132.532C132.485 61.7614 132.442 61.6054 132.404 61.4219C132.366 61.2292 132.338 61.0549 132.319 60.8989C132.006 61.2476 131.626 61.5183 131.18 61.711C130.744 61.9037 130.26 62 129.729 62H129.686Z" fill="#C9C9C9"/>
<path d="M139.039 61.9725C138.517 61.9725 138.033 61.8853 137.587 61.711C137.151 61.5366 136.772 61.2889 136.449 60.9677C136.136 60.6466 135.889 60.2658 135.709 59.8253C135.529 59.3757 135.439 58.8848 135.439 58.3526V58.27C135.439 57.7287 135.529 57.2378 135.709 56.7973C135.889 56.3569 136.136 55.9761 136.449 55.6549C136.772 55.3338 137.151 55.086 137.587 54.9117C138.033 54.7374 138.517 54.6502 139.039 54.6502H139.082C139.641 54.6502 140.149 54.7511 140.604 54.953C141.069 55.1457 141.463 55.4209 141.785 55.7788V51.98H142.838V61.8899H142.013C141.966 61.7614 141.918 61.5963 141.871 61.3944C141.833 61.1834 141.804 60.9998 141.785 60.8439C141.463 61.2017 141.069 61.4816 140.604 61.6834C140.149 61.8761 139.641 61.9725 139.082 61.9725H139.039ZM139.195 60.954C139.983 60.954 140.609 60.72 141.074 60.252C141.548 59.784 141.785 59.1509 141.785 58.3526V58.27C141.785 57.4717 141.548 56.8386 141.074 56.3706C140.609 55.9027 139.983 55.6687 139.195 55.6687H139.139C138.351 55.6687 137.72 55.9027 137.246 56.3706C136.781 56.8386 136.549 57.4717 136.549 58.27V58.3526C136.549 59.1509 136.781 59.784 137.246 60.252C137.72 60.72 138.351 60.954 139.139 60.954H139.195Z" fill="#C9C9C9"/>
<path d="M145.926 53.3426C145.727 53.3426 145.561 53.2784 145.428 53.1499C145.296 53.0215 145.229 52.8609 145.229 52.6682C145.229 52.4755 145.296 52.3149 145.428 52.1865C145.561 52.0488 145.727 51.98 145.926 51.98C146.126 51.98 146.292 52.0488 146.425 52.1865C146.557 52.3149 146.624 52.4755 146.624 52.6682C146.624 52.8609 146.557 53.0215 146.425 53.1499C146.292 53.2784 146.126 53.3426 145.926 53.3426ZM145.4 54.7328H146.453V61.8899H145.4V54.7328Z" fill="#C9C9C9"/>
<path d="M152.229 61.9725C151.688 61.9725 151.19 61.8853 150.735 61.711C150.279 61.5274 149.886 61.2797 149.554 60.9677C149.231 60.6466 148.98 60.2658 148.8 59.8253C148.619 59.3757 148.529 58.8848 148.529 58.3526V58.27C148.529 57.7378 148.619 57.2515 148.8 56.8111C148.98 56.3615 149.231 55.9807 149.554 55.6687C149.886 55.3475 150.279 55.0998 150.735 54.9255C151.19 54.7419 151.688 54.6502 152.229 54.6502H152.3C152.841 54.6502 153.339 54.7419 153.794 54.9255C154.25 55.0998 154.639 55.3475 154.961 55.6687C155.293 55.9807 155.549 56.3615 155.73 56.8111C155.91 57.2515 156 57.7378 156 58.27V58.3526C156 58.8848 155.91 59.3757 155.73 59.8253C155.549 60.2658 155.293 60.6466 154.961 60.9677C154.639 61.2797 154.25 61.5274 153.794 61.711C153.339 61.8853 152.841 61.9725 152.3 61.9725H152.229ZM152.272 60.9677C152.661 60.9677 153.016 60.9035 153.339 60.775C153.661 60.6466 153.937 60.4676 154.164 60.2382C154.392 60.0089 154.567 59.7336 154.691 59.4124C154.824 59.0913 154.89 58.738 154.89 58.3526V58.27C154.89 57.8847 154.824 57.5314 154.691 57.2102C154.567 56.8891 154.392 56.6138 154.164 56.3844C153.937 56.155 153.661 55.9761 153.339 55.8476C153.016 55.7192 152.661 55.6549 152.272 55.6549H152.257C151.868 55.6549 151.513 55.7192 151.19 55.8476C150.868 55.9761 150.593 56.155 150.365 56.3844C150.137 56.6138 149.957 56.8891 149.824 57.2102C149.701 57.5314 149.639 57.8847 149.639 58.27V58.3526C149.639 58.738 149.701 59.0913 149.824 59.4124C149.957 59.7336 150.137 60.0089 150.365 60.2382C150.593 60.4676 150.868 60.6466 151.19 60.775C151.513 60.9035 151.868 60.9677 152.257 60.9677H152.272Z" fill="#C9C9C9"/>
<path d="M64.5851 83.3614C67.1466 77.8684 59.1101 73.8643 53.7611 74.0366C48.6897 74.9008 49.2088 77.5776 48.5814 78.7799C46.4249 82.9128 49.4038 85.9548 52.0178 86.8566C55.0138 88.2499 61.7218 89.5015 64.5851 83.3614Z" stroke="#C9C9C9" stroke-width="0.5"/>
<path d="M48.9306 76.4091C49.0017 72.7222 43.6829 71.573 40.6973 70.9115C39.2034 70.6354 37.3407 70.0459 34.7907 71.0868C33.2796 71.7036 29.2375 77.2286 31.6206 79.9815C36.1477 83.3079 41.3749 84.347 44.5859 83.0463C46.3826 82.1958 48.8594 80.0961 48.9306 76.4091Z" stroke="#C9C9C9" stroke-width="0.5"/>
<path d="M21.7676 75.5928C22.9952 78.411 26.6993 78.9007 28.7936 78.189C30.9751 77.2488 33.0709 73.3399 31.9258 70.3692C30.6715 67.1152 26.7064 67.3719 24.794 68.0129C22.6121 68.9304 20.7348 73.2218 21.7676 75.5928Z" stroke="#C9C9C9" stroke-width="0.5"/>
<path d="M17.0346 64.4393C17.0645 64.4351 17.0947 64.4311 17.1252 64.4272M17.1252 64.4272C19.5973 64.1112 23.9656 64.7976 22.3414 70.0399C20.697 75.3468 15.83 74.5424 13.4767 72.8346C12.2193 71.4109 11.0667 69.3137 12.5873 66.61C13.992 65.1596 16.1719 64.7053 17.1252 64.4272Z" stroke="#C9C9C9" stroke-width="0.5"/>
<path d="M15.0504 59.9298C12.9355 58.1805 8.93069 59.1123 6.40086 60.0587C3.18184 61.6786 5.29454 63.9927 6.30106 65.2284C7.15498 66.03 8.35862 68.3484 10.6962 67.3529C13.6182 66.1086 16.7138 61.3057 15.0504 59.9298Z" stroke="#C9C9C9" stroke-width="0.5"/>
<path d="M9.06703 42.7731C11.1609 41.8875 10.9814 40.2665 9.87596 39.5333L7.8425 38.546L7.09692 38.2107L5.52061 37.7074L2.92402 37.1916C1.71056 36.9276 1.06266 37.9214 1.07233 41.2864C1.082 44.6515 2.71123 44.9917 3.61942 44.6634C4.55972 44.2828 6.90359 43.6882 9.06703 42.7731Z" stroke="#C9C9C9" stroke-width="0.5"/>
<path d="M9.06703 50.3748C11.1609 49.4892 10.9814 47.8682 9.87596 47.135L7.8425 46.1477L7.09692 45.8124L5.52061 45.3091L2.92402 44.7933C1.71056 44.5293 1.06266 45.5231 1.07233 48.8881C1.082 52.2532 2.71123 52.5933 3.61942 52.2651C4.55972 51.8845 6.90359 51.2899 9.06703 50.3748Z" stroke="#C9C9C9" stroke-width="0.5"/>
<path d="M11.8003 56.7321C13.828 55.4935 13.1279 54.0605 11.685 53.6252L10.6542 53.3665L9.37167 53.1537L7.76185 52.95L6.32952 52.8743L3.31433 52.9461C1.89813 52.9589 1.48828 53.9771 2.54263 57.0274C3.59698 60.0778 4.35752 60.7006 5.25435 60.2141C6.17025 59.6734 9.70526 58.0118 11.8003 56.7321Z" stroke="#C9C9C9" stroke-width="0.5"/>
<path d="M11.8384 34.1464C11.4158 31.9141 8.78353 30.7107 7.32956 29.9541C5.41989 29.0298 3.93461 29.8957 2.88428 32.0036C2.04401 33.6898 1.81495 35.1397 3.71269 36.6811C7.26468 38.1137 12.2552 36.348 11.8384 34.1464Z" stroke="#C9C9C9" stroke-width="0.5"/>
<path d="M16.0525 29.6084C17.1336 28.4965 16.6135 25.5 15.1148 23.2941L14.1675 22.4704L11.8797 21.2198C9.86845 20.62 9.75317 20.7571 7.782 22.3605C5.19525 24.4646 5.59686 27.3291 6.72124 28.9633C9.38479 30.7048 14.1989 31.5148 16.0525 29.6084Z" stroke="#C9C9C9" stroke-width="0.5"/>
<path d="M20.3103 17.3655L19.6945 15.6056C19.4224 15.3206 19.8631 16.4624 19.8562 16.8212C19.8494 17.1713 19.8987 17.8127 19.6453 18.1587C19.1393 18.804 16.9301 19.8455 15.5315 19.429C14.133 19.0126 14.2308 19.0152 14.3514 19.1574C14.4104 19.2985 14.6209 19.5823 15.1732 19.7321C15.959 19.9453 16.0978 20.1033 16.2801 20.2466C18.3834 21.544 17.4365 20.7287 17.1961 20.3976C17.075 20.2787 16.759 19.9426 17.2074 19.7261C18.7867 19.4029 19.2095 18.9559 19.6375 18.5609C20.081 18.1517 20.3947 17.7874 20.3103 17.3655Z" fill="#C9C9C9"/>
<path d="M20.5228 68.7873L19.8732 67.0374C19.5956 66.7567 20.0582 67.8914 20.0582 68.2503C20.0582 68.6004 20.1199 69.2409 19.8732 69.5909C19.3797 70.2441 17.191 71.3203 15.7846 70.9259C14.3783 70.5316 14.4761 70.5326 14.5995 70.6729C14.6611 70.8131 14.877 71.0935 15.4322 71.2346C16.222 71.4354 16.3638 71.5912 16.5489 71.7315C18.6769 72.9956 17.7144 72.1953 17.4676 71.868C17.3443 71.7511 17.0218 71.4201 17.4659 71.1965C19.0388 70.8484 19.4529 70.3948 19.8732 69.9931C20.3088 69.577 20.6154 69.2078 20.5228 68.7873Z" fill="#C9C9C9"/>
<path d="M22.7849 23.109C24.7899 20.6188 23.5265 17.5486 22.6441 16.3248C21.7932 15.0344 19.2092 13.0964 15.6806 15.6678C12.1519 18.2392 12.9241 20.7907 13.7512 21.745C15.927 23.2372 20.7799 25.5992 22.7849 23.109Z" stroke="#C9C9C9" stroke-width="0.5"/>
<path d="M32.6091 17.5331C35.5193 14.2321 31.1373 10.3362 28.6954 9.29851C26.6883 8.75611 24.9622 9.19875 24.0791 9.62917C20.1721 11.5335 21.7491 14.508 22.6588 16.5072C24.5674 19.0303 28.5263 22.1641 32.6091 17.5331Z" stroke="#C9C9C9" stroke-width="0.5"/>
<path d="M29.5973 74.7121L28.9973 76.6814C28.8045 76.8585 28.7924 75.8568 28.9298 75.2385C29.1997 73.6014 28.3915 72.9355 27.9537 72.8071L24.7437 72.6306C24.5742 72.8925 24.159 73.4745 23.8544 73.7081C23.5498 73.9416 22.8904 74.5937 23.1965 74.11C23.3612 73.9105 23.5871 73.6241 23.8833 73.3342C24.3677 72.8603 24.4785 71.4272 24.6569 71.437L25.0449 72.2092L28.3441 72.3905C29.0711 71.8674 30.5251 70.821 29.6599 71.5869C28.9678 72.1996 28.7626 72.7681 28.7466 72.9758C28.9137 73.131 29.244 73.4912 29.2286 73.6906C29.1852 74.2514 30.7348 73.8986 30.2745 74.061C29.9063 74.1909 29.6696 74.5492 29.5973 74.7121Z" fill="#C9C9C9"/>
<path d="M24.2951 14.4656L25.1034 16.4987C25.3231 16.676 25.0391 15.7176 24.8087 15.0681C24.2925 13.3428 25.0135 12.5058 25.4328 12.344L28.6693 11.9102C29.1587 12.2219 29.4688 12.8086 29.809 13.0394C30.1493 13.2701 30.9078 13.9254 30.5285 13.4287C30.3336 13.2261 30.0642 12.9346 29.7239 12.6435C29.1675 12.1676 28.578 10.4576 28.6644 10.7512L28.4402 11.755L25.1134 11.898C24.3065 11.3837 23.5645 11.1405 23.7083 11.2524C24.4937 11.864 24.7508 12.3238 24.7981 12.5437C24.654 12.7184 24.3771 13.1206 24.4225 13.3317C24.5502 13.9255 22.9448 13.64 23.4303 13.7861C23.8188 13.9029 24.1982 14.2966 24.2951 14.4656Z" fill="#C9C9C9"/>
<path d="M48.3601 14.692C52.9422 7.96326 48.1353 5.08702 44.8539 4.62669C44.125 4.51385 41.8028 4.43803 38.3452 5.03753C34.0231 5.7869 32.8156 6.9233 32.2848 9.02231C31.8729 10.6512 33.9191 15.9745 35.9048 16.9494C39.3516 18.0314 41.3895 17.1549 42.9562 16.7656C44.7037 16.4521 46.7514 16.5767 48.3601 14.692Z" stroke="#C9C9C9" stroke-width="0.5"/>
<path d="M65.107 10.7042C66.6435 8.04603 65.8826 5.02402 65.0653 4.12278L64.0719 3.18464L62.8414 2.48908C60.4534 1.18613 57.8605 1.41779 54.489 2.34829C50.2746 3.51141 50.6695 3.81313 50.745 7.69946C50.8204 11.5858 51.337 11.3287 52.9137 12.9731C54.1751 14.2886 56.35 13.692 57.8389 13.2002C59.9597 12.7675 63.5704 13.3623 65.107 10.7042Z" stroke="#C9C9C9" stroke-width="0.5"/>
<path d="M54.4847 11.1055C53.9491 10.1274 52.4667 7.9618 52.604 7.8495C52.7413 7.7372 54.1356 8.94113 54.196 8.93693C55.7046 8.83183 56.1221 8.53818 56.3335 8.4114C56.7211 8.17896 57.0228 7.96329 57.0043 7.16632C56.9575 6.90645 56.724 6.49424 56.4787 5.79916C56.2334 5.10409 56.2909 5.05899 56.3503 5.12333L56.8125 5.6358C57.3797 6.39621 57.1191 6.58674 57.7221 7.42713C58.2836 8.20974 59.0213 8.20856 59.3566 8.05966C59.9237 7.74624 61.0371 7.27949 61.3385 7.07847C61.6069 6.89935 62.0525 6.48368 62.1438 6.12352C62.212 5.68508 62.4427 4.74 62.5067 4.76294C62.7288 4.82964 62.4942 6.28171 62.3492 6.99941C62.3366 7.00029 62.4744 7.02493 63.1262 7.11648C63.9409 7.23091 63.9363 7.00232 63.965 6.93186C63.9936 6.86139 64.1156 6.54539 64.2 6.32266C64.2 6.32266 64.3811 6.01577 64.4233 6.04706C64.4656 6.07836 64.4827 6.61901 64.4856 7.12449C64.4873 7.42174 64.4735 7.48246 64.4671 7.66941C64.4608 7.85637 64.3985 8.10449 64.1843 8.09994C63.9701 8.09538 64.0771 7.63416 63.8638 7.55771C63.7054 7.51168 63.0765 7.42808 62.4128 7.47432C61.3899 7.51134 60.5861 8.04668 59.9813 8.36272C59.4974 8.61556 59.6763 9.02309 59.8262 9.19525C60.0773 9.55438 60.6762 10.2787 60.753 10.4317C60.9568 10.8376 60.9088 11.3111 60.871 11.3137C60.8333 11.3164 60.7775 11.1833 60.7307 11.1181C60.6839 11.0529 60.5299 10.7554 60.5208 10.6876C60.5117 10.6197 59.4959 9.28674 58.9466 8.8799C58.3973 8.47307 57.9762 8.51218 57.685 8.5217C57.5211 8.52706 55.8254 9.16582 55.5991 9.18158C54.4105 9.40133 54.3199 9.38417 54.2777 9.54754C54.343 10.4097 55.021 10.9967 54.4847 11.1055Z" fill="#C9C9C9"/>
<path d="M52.1183 78.0225C51.6424 79.0146 50.2921 81.2178 50.4361 81.3273C50.58 81.4368 51.9003 80.1992 51.9608 80.2021C53.4742 80.2738 53.909 80.5588 54.1278 80.6811C54.5291 80.9054 54.8435 81.1148 54.8731 81.9139C54.842 82.1754 54.6337 82.5937 54.4306 83.2957C54.2275 83.9977 54.2877 84.0416 54.3431 83.9758L54.7738 83.452C55.2946 82.6773 55.0228 82.4922 55.5744 81.6366C56.0881 80.8398 56.8251 80.8245 57.1691 80.9663C57.7545 81.2677 58.8949 81.7107 59.2081 81.9054C59.4871 82.0789 59.9572 82.4856 60.0703 82.8444C60.1649 83.2823 60.4523 84.2242 60.5149 84.1998C60.7327 84.128 60.4107 82.6781 60.2225 81.9621C60.2099 81.9615 60.3461 81.9338 60.9916 81.8275C61.7986 81.6947 61.8078 81.9238 61.8407 81.9938C61.8736 82.0638 62.0568 82.5672 62.1546 82.7886C62.1546 82.7886 62.281 83.0109 62.3214 82.9786C62.3617 82.9463 62.3768 82.2958 62.3492 81.7892C62.3329 81.4913 62.3154 81.4307 62.2978 81.2435C62.2802 81.0563 61.9618 80.3419 61.863 80.3462C61.7641 80.3505 61.9103 81.2875 61.7019 81.3689C61.5464 81.4185 60.9232 81.5163 60.2574 81.4848C59.2334 81.4705 58.398 80.9519 57.7747 80.6486C57.2761 80.4061 57.4302 79.9937 57.5696 79.8178C57.7987 79.4523 58.3533 78.7131 58.4208 78.558C58.5999 78.1468 58.6509 77.6794 58.4855 77.6715C58.3713 77.6661 58.3786 77.7735 58.3259 77.8552C58.2831 77.9216 58.066 78.2889 57.9805 78.3501C57.9144 78.3974 57.212 79.5986 56.6878 80.0185C56.1636 80.4384 55.7628 80.5435 55.4713 80.5405C55.3072 80.5388 53.5747 79.9364 53.3477 79.9257C52.147 79.7319 52.0576 79.7511 52.0056 79.5884C52.0187 78.7229 52.6607 78.1196 52.1183 78.0225Z" fill="#C9C9C9"/>
<path d="M47.8039 11.1951C47.1207 10.0097 45.8131 7.23719 45.5974 7.20007C45.3817 7.16295 45.7149 8.98822 45.6687 9.01431C44.5139 9.6668 43.7594 9.7002 43.4769 9.68639C42.959 9.66106 42.6687 9.5073 41.8235 8.74943C41.5761 8.48201 41.2935 7.97853 40.7146 7.20346C40.1358 6.42839 40.0475 6.41465 40.0758 6.50465L40.3083 7.21619C40.7352 8.21296 41.1203 8.26216 41.6086 9.35186C42.0634 10.3666 41.5527 10.7328 41.1609 10.76C40.4319 10.7479 39.1606 10.8639 38.7361 10.8251C38.3579 10.7905 37.6028 10.6219 37.152 10.3291C36.6329 9.95118 35.4562 9.17827 35.4368 9.23167C35.3552 9.40491 37.0803 10.6522 37.9531 11.2541C37.9627 11.2487 37.8941 11.3405 37.5426 11.751C37.1032 12.2642 36.8603 12.0472 36.7647 11.9952C36.669 11.9433 36.2446 11.7072 35.9466 11.54C35.9466 11.54 35.4911 11.3419 35.4957 11.3923C35.5002 11.4428 36.0704 11.9591 36.6125 12.4354C36.9313 12.7155 37.0063 12.7657 37.2119 12.9381C37.4175 13.1106 37.7276 13.3127 37.8707 13.2017C38.0137 13.0908 37.4433 12.7108 37.5082 12.5328C37.5681 12.4107 37.9123 12.019 38.4205 11.7319C39.1666 11.2574 40.2979 11.36 41.0558 11.3557C41.6621 11.3522 41.9773 11.8241 42.0591 12.0605C42.2723 12.5229 42.6386 13.5015 42.7502 13.6835C43.0464 14.1663 43.5893 14.5871 43.6182 14.5708C43.6471 14.5545 43.5424 14.4017 43.5045 14.3171C43.4666 14.2326 43.2528 13.8765 43.186 13.8082C43.1192 13.74 42.3857 11.982 42.327 11.3263C42.2684 10.6706 42.6012 10.4977 42.8125 10.3616C42.9315 10.285 44.79 10.0407 44.9632 9.9428C46.0206 9.55735 46.0646 9.49616 46.2696 9.6286C47.1527 10.471 47.3164 11.36 47.8039 11.1951Z" fill="#C9C9C9"/>
<path d="M36.945 73.6011C36.2436 74.6876 34.3939 77.0701 34.5121 77.2102C34.6303 77.3502 36.2285 76.0697 36.2881 76.0792C37.7782 76.3168 38.1456 76.6876 38.3354 76.8501C38.6834 77.148 38.9483 77.4199 38.7944 78.3374C38.7035 78.6334 38.4001 79.0907 38.0369 79.8731C37.6737 80.6556 37.7235 80.7121 37.7937 80.6425L38.3428 80.0872C39.0389 79.2543 38.8108 79.0145 39.5562 78.092C40.2504 77.233 40.9876 77.2913 41.2975 77.4889C41.8111 77.894 42.8447 78.518 43.1118 78.7731C43.3497 79.0003 43.7245 79.5139 43.7546 79.9362C43.7483 80.447 43.8184 81.5545 43.8862 81.533C44.1196 81.4732 44.1317 79.7809 44.1087 78.9422C44.0962 78.9402 44.2382 78.9224 44.9052 78.8672C45.7389 78.7981 45.6956 79.0613 45.7122 79.1447C45.7289 79.2282 45.7972 79.602 45.8437 79.8653C45.8437 79.8653 45.9726 80.2331 46.0201 80.2003C46.0677 80.1674 46.1766 79.5454 46.2654 78.9628C46.3176 78.6202 46.314 78.5491 46.3394 78.3331C46.3649 78.117 46.3448 77.8262 46.1299 77.8149C45.915 77.8036 45.9436 78.3436 45.7174 78.4153C45.5513 78.4562 44.9085 78.504 44.2528 78.3995C43.2368 78.2779 42.5242 77.5987 41.9733 77.1876C41.5326 76.8588 41.7806 76.4027 41.9597 76.2158C42.2717 75.8211 42.9933 75.0321 43.0961 74.8616C43.3688 74.4094 43.4011 73.8597 43.3639 73.8538C43.3266 73.8478 43.2482 73.997 43.1903 74.0685C43.1325 74.1401 42.928 74.4712 42.9074 74.5487C42.8869 74.6262 41.6451 76.0848 41.0269 76.5115C40.4088 76.9382 39.9945 76.8606 39.7051 76.8271C39.5422 76.8083 37.9557 75.941 37.7321 75.9054C36.5814 75.5603 36.488 75.5731 36.4735 75.3815C36.6852 74.3924 37.4626 73.768 36.945 73.6011Z" fill="#C9C9C9"/>
<path d="M9.05113 25.5204C9.44484 24.7291 10.2779 23.705 11.1638 23.0789C11.6342 22.8131 9.76586 24.8564 9.49976 25.4475C8.98942 26.5812 9.52264 28.138 9.25141 27.9503C9.01038 27.7836 8.62084 26.3852 9.05113 25.5204Z" fill="#C9C9C9"/>
<path d="M8.49736 64.5302C7.9643 63.8148 7.44575 62.6389 7.328 61.6291C7.328 61.1275 8.25355 63.6329 8.6666 64.1458C9.45877 65.1293 11.1999 65.5265 10.8805 65.6386C10.5966 65.7381 9.07994 65.3121 8.49736 64.5302Z" fill="#C9C9C9"/>
<path d="M4.41511 33.6232C4.50534 33.002 5.5195 31.5298 6.00866 31.2662C6.33614 31.0898 4.80024 33.2558 4.796 33.7233C4.79175 34.1909 5.26323 35.9142 5.1181 36.121C4.96444 36.3398 4.33235 34.193 4.41511 33.6232Z" fill="#C9C9C9"/>
<path d="M3.10466 40.9059C3.07412 40.2803 3.79024 38.6719 4.2215 38.3356C4.51021 38.1104 3.41345 40.4837 3.49916 40.9445C3.58486 41.4052 4.38069 43.0271 4.27745 43.2533C4.16814 43.4929 3.13266 41.4796 3.10466 40.9059Z" fill="#C9C9C9"/>
<path d="M3.28257 48.8893C3.25204 48.2637 3.96816 46.6553 4.39942 46.319C4.68813 46.0938 3.59137 48.4671 3.67707 48.9279C3.76278 49.3886 4.5586 51.0105 4.45537 51.2367C4.34605 51.4763 3.31058 49.463 3.28257 48.8893Z" fill="#C9C9C9"/>
<path d="M3.91323 56.6209C3.64665 56.0483 3.7093 54.3227 3.9874 53.8721C4.17358 53.5704 4.04341 56.1294 4.29928 56.5311C4.55515 56.9327 5.92098 58.1888 5.90982 58.4324C5.898 58.6902 4.15773 57.1461 3.91323 56.6209Z" fill="#C9C9C9"/>
</symbol>

<symbol id="arrow" width="25" height="24" viewBox="0 0 25 24" fill="none">
<path d="M5.27592 17.9906L19.2645 6.66287M19.2645 6.66287L10.2429 6.2479M19.2645 6.66287L17.7947 15.5737" stroke="#202020" stroke-width="1.5" stroke-linecap="round" stroke-linejoin="round"/>
</symbol>

<symbol id="telegram" width="45" height="45" viewBox="0 0 45 45" fill="none" >
  <path fill-rule="evenodd" clip-rule="evenodd" d="M34.2734 14.4391L29.9406 30.9513C29.5483 32.4464 27.778 33.0474 26.5232 32.2852C25.4958 31.6611 23.3589 30.4285 19.1664 28.2158C18.3324 27.7756 18.0337 26.6287 18.7493 25.8526L20.8373 23.588L17.4132 25.4302C16.3082 26.0247 14.9419 26.371 13.5314 26.0819C11.617 25.6894 9.81954 24.9857 9.27698 24.7642C7.91112 24.2067 8.09718 22.4306 9.28757 21.9529L32.2751 12.7271C33.4045 12.2738 34.5779 13.2784 34.2734 14.4391ZM9.84621 23.2947C9.78583 23.3189 9.78355 23.4011 9.84378 23.4257C10.3596 23.6362 12.0557 24.2985 13.8332 24.6629C14.816 24.8643 15.8232 24.6327 16.7037 24.159L26.6609 18.8019C26.8799 18.6841 27.0991 18.9568 26.9315 19.1385L19.8438 26.8255C19.8117 26.8604 19.8232 26.9166 19.8655 26.9389C24.0722 29.1592 26.2374 30.4069 27.3 31.0524C27.7497 31.3256 28.3789 31.0924 28.5108 30.5897L32.8436 14.0775C32.8452 14.0717 32.8393 14.0667 32.8337 14.0689L9.84621 23.2947Z" fill="#E9E9E9"/>
</symbol>

<symbol id="viber" width="45" height="45" viewBox="0 0 45 45" fill="none" >
  <path fill-rule="evenodd" clip-rule="evenodd" d="M18.3921 16.0986C18.1978 15.6519 17.8008 15.2977 17.3234 15.329C15.828 15.4271 14.9039 16.8308 14.4868 18.3128C14.0073 20.0166 14.5613 21.822 15.5422 23.2843C16.4578 24.6491 17.627 25.8655 18.9402 26.8496C20.7523 28.2077 23.1378 29.1604 25.0671 27.9829C26.0594 27.3773 26.9188 26.472 27.141 25.4841C27.2524 24.9887 26.8998 24.5486 26.4469 24.3381L24.1916 23.2899C23.89 23.1497 23.4956 23.219 23.216 23.4008C22.7305 23.7163 22.0871 24.0934 21.5695 23.8365C20.3026 23.2079 19.4629 22.3967 18.8564 21.0689C18.6145 20.5393 18.9577 19.8774 19.2601 19.3813C19.4461 19.0761 19.5072 18.6624 19.3643 18.3339L18.3921 16.0986ZM17.2485 16.6332L18.1668 18.7446C18.0075 19.0086 17.7936 19.3894 17.6582 19.8155C17.5166 20.2609 17.4056 20.9306 17.7169 21.6124C18.4564 23.2315 19.5178 24.2469 21.0202 24.9924C21.7074 25.3335 22.382 25.2017 22.8174 25.0471C23.2159 24.9057 23.5751 24.6881 23.8218 24.5297L25.8242 25.4603C25.6179 25.9125 25.1364 26.4439 24.4223 26.8797C23.8111 27.2528 23.0889 27.3224 22.253 27.1176C21.4014 26.9089 20.5039 26.428 19.6839 25.8134C18.4797 24.9109 17.4113 23.7978 16.5794 22.5577C15.7228 21.2807 15.356 19.8735 15.6953 18.668C16.0459 17.4223 16.6443 16.7631 17.2485 16.6332Z" fill="#E9E9E9"/>
  <path d="M24.9313 20.3751C25.0388 20.7927 24.7025 21.168 24.28 21.168C23.9527 21.168 23.6749 20.9371 23.5464 20.6296C23.2284 19.8683 22.6362 19.2633 21.8913 18.9384C21.5903 18.8071 21.3643 18.5232 21.3643 18.1888C21.3643 17.757 21.7316 17.4134 22.1402 17.5232C23.5218 17.8945 24.5683 18.965 24.9313 20.3751Z" fill="#E9E9E9"/>
  <path d="M27.2606 21.3088C27.7084 21.3088 28.0558 20.9035 27.9487 20.4591C27.2701 17.6447 25.0879 15.4149 22.3337 14.7216C21.8989 14.6121 21.5022 14.9671 21.5022 15.4247C21.5022 15.7892 21.7586 16.0971 22.102 16.1956C24.2246 16.8044 25.9103 18.5269 26.5062 20.6959C26.6026 21.0468 26.9039 21.3088 27.2606 21.3088Z" fill="#E9E9E9"/>
  <path d="M30.7276 20.6991C30.7412 21.1011 30.4139 21.4178 30.0203 21.4178C29.5978 21.4178 29.2655 21.0545 29.2436 20.6233C29.054 16.8869 26.0427 13.8098 22.3863 13.616C21.9644 13.5936 21.6088 13.2541 21.6088 12.8224C21.6088 12.4202 21.9188 12.0857 22.3121 12.0996C26.8323 12.2594 30.5713 16.0802 30.7276 20.6991Z" fill="#E9E9E9"/>
  <path fill-rule="evenodd" clip-rule="evenodd" d="M28.3266 31.8521C31.6225 31.2337 34.092 28.4771 34.4939 25.0775C34.6618 23.6568 34.75 22.1854 34.75 20.6783C34.75 19.1711 34.6618 17.6997 34.4939 16.279C34.092 12.8794 31.6225 10.1229 28.3266 9.50439C26.4106 9.14487 24.3689 8.95081 22.25 8.95081C20.1311 8.95081 18.0894 9.14487 16.1734 9.50439C12.8775 10.1229 10.408 12.8794 10.0061 16.279C9.83821 17.6997 9.75 19.1711 9.75 20.6783C9.75 22.1854 9.83821 23.6568 10.0061 25.0775C10.3495 27.9823 12.2024 30.4175 14.7905 31.4508C15.0927 31.5714 15.3055 31.8607 15.3055 32.1921V36.1934C15.3055 36.9033 16.1766 37.2217 16.6172 36.6728L19.8567 32.6371C20.0073 32.4494 20.237 32.3476 20.4743 32.3599C21.0593 32.3902 21.6516 32.4057 22.25 32.4057C24.3689 32.4057 26.4106 32.2117 28.3266 31.8521ZM28.0594 30.3652C30.6998 29.8698 32.6987 27.658 33.0251 24.8963C33.1859 23.5361 33.2706 22.1253 33.2706 20.6783C33.2706 19.2312 33.1859 17.8204 33.0251 16.4603C32.6987 13.6985 30.6998 11.4868 28.0594 10.9913C26.2334 10.6486 24.2811 10.4626 22.25 10.4626C20.2189 10.4626 18.2666 10.6486 16.4406 10.9913C13.8002 11.4868 11.8013 13.6985 11.4749 16.4603C11.3141 17.8204 11.2294 19.2312 11.2294 20.6783C11.2294 22.1253 11.3141 23.5361 11.4749 24.8963C11.7537 27.2554 13.255 29.2147 15.3288 30.0427C16.1397 30.3663 16.785 31.1759 16.785 32.1921V34.0801L18.7128 31.6784C19.1667 31.1129 19.852 30.814 20.5492 30.8501C21.1092 30.8791 21.6765 30.894 22.25 30.894C24.2811 30.894 26.2334 30.7079 28.0594 30.3652Z" fill="#E9E9E9"/>
</symbol>

<symbol id="instagram" width="45" height="45" viewBox="0 0 45 45" fill="none" >
  <path fill-rule="evenodd" clip-rule="evenodd" d="M22.7609 28.0109C25.6604 28.0109 28.0109 25.6604 28.0109 22.7609C28.0109 19.8614 25.6604 17.5109 22.7609 17.5109C19.8614 17.5109 17.5109 19.8614 17.5109 22.7609C17.5109 25.6604 19.8614 28.0109 22.7609 28.0109ZM22.7609 26.5109C24.8319 26.5109 26.5109 24.8319 26.5109 22.7609C26.5109 20.6898 24.8319 19.0109 22.7609 19.0109C20.6898 19.0109 19.0109 20.6898 19.0109 22.7609C19.0109 24.8319 20.6898 26.5109 22.7609 26.5109Z" fill="#E9E9E9"/>
  <path d="M29.5109 17.5109C29.9251 17.5109 30.2609 17.1751 30.2609 16.7609C30.2609 16.3467 29.9251 16.0109 29.5109 16.0109C29.0967 16.0109 28.7609 16.3467 28.7609 16.7609C28.7609 17.1751 29.0967 17.5109 29.5109 17.5109Z" fill="#E9E9E9"/>
  <path fill-rule="evenodd" clip-rule="evenodd" d="M17.5109 10.7609C13.7829 10.7609 10.7609 13.7829 10.7609 17.5109V28.0109C10.7609 31.7388 13.7829 34.7609 17.5109 34.7609H28.0109C31.7388 34.7609 34.7609 31.7388 34.7609 28.0109V17.5109C34.7609 13.7829 31.7388 10.7609 28.0109 10.7609H17.5109ZM28.0109 12.2609H17.5109C14.6114 12.2609 12.2609 14.6114 12.2609 17.5109V28.0109C12.2609 30.9104 14.6114 33.2609 17.5109 33.2609H28.0109C30.9104 33.2609 33.2609 30.9104 33.2609 28.0109V17.5109C33.2609 14.6114 30.9104 12.2609 28.0109 12.2609Z" fill="#E9E9E9"/>
</symbol>

</svg>
